<svg width="188" height="35" viewBox="0 0 188 35" fill="currentColor" xmlns="http://www.w3.org/2000/svg">
<path d="M0 3.64583C0 2.6789 0.400356 1.75157 1.11299 1.06784C1.82563 0.384113 2.79218 0 3.8 0L15.2 0C16.2078 0 17.1744 0.384113 17.887 1.06784C18.5996 1.75157 19 2.6789 19 3.64583V25.5208C19 26.4878 18.5996 27.4151 17.887 28.0988C17.1744 28.7826 16.2078 29.1667 15.2 29.1667H3.8C2.79218 29.1667 1.82563 28.7826 1.11299 28.0988C0.400356 27.4151 0 26.4878 0 25.5208V3.64583ZM11.4 23.6979C11.4 23.2144 11.1998 22.7508 10.8435 22.4089C10.4872 22.0671 10.0039 21.875 9.5 21.875C8.99609 21.875 8.51282 22.0671 8.1565 22.4089C7.80018 22.7508 7.6 23.2144 7.6 23.6979C7.6 24.1814 7.80018 24.645 8.1565 24.9869C8.51282 25.3288 8.99609 25.5208 9.5 25.5208C10.0039 25.5208 10.4872 25.3288 10.8435 24.9869C11.1998 24.645 11.4 24.1814 11.4 23.6979Z" />
<path d="M40.7581 28.5396H36.068V10.3778H29V5.83334H47.8097V10.3778H40.7581V28.5396Z" />
<path d="M64.0447 19.91C64.0447 21.1767 63.8097 22.359 63.3396 23.4568C62.8695 24.5441 62.2299 25.4889 61.4209 26.2912C60.6119 27.0829 59.6607 27.711 58.5675 28.1754C57.4851 28.6294 56.3208 28.8563 55.0745 28.8563C53.8391 28.8563 52.6747 28.6294 51.5815 28.1754C50.4991 27.711 49.548 27.0829 48.728 26.2912C47.919 25.4889 47.2795 24.5441 46.8094 23.4568C46.3393 22.359 46.1042 21.1767 46.1042 19.91C46.1042 18.6221 46.3393 17.4293 46.8094 16.3314C47.2795 15.2336 47.919 14.2888 48.728 13.4971C49.548 12.6948 50.4991 12.0667 51.5815 11.6128C52.6747 11.1589 53.8391 10.932 55.0745 10.932C56.3208 10.932 57.4851 11.1484 58.5675 11.5812C59.6607 12.0034 60.6119 12.6104 61.4209 13.4021C62.2299 14.1833 62.8695 15.128 63.3396 16.2364C63.8097 17.3343 64.0447 18.5588 64.0447 19.91ZM59.535 19.91C59.535 19.2133 59.4148 18.5852 59.1742 18.0257C58.9446 17.4557 58.6276 16.9701 58.2231 16.5689C57.8186 16.1573 57.343 15.8459 56.7964 15.6347C56.2607 15.413 55.6867 15.3022 55.0745 15.3022C54.4622 15.3022 53.8828 15.413 53.3362 15.6347C52.8005 15.8459 52.3304 16.1573 51.9259 16.5689C51.5323 16.9701 51.2207 17.4557 50.9911 18.0257C50.7615 18.5852 50.6467 19.2133 50.6467 19.91C50.6467 20.5645 50.7615 21.1714 50.9911 21.7309C51.2207 22.2904 51.5323 22.776 51.9259 23.1877C52.3304 23.5994 52.8005 23.9266 53.3362 24.1694C53.8828 24.4016 54.4622 24.5177 55.0745 24.5177C55.6867 24.5177 56.2607 24.4069 56.7964 24.1852C57.343 23.9635 57.8186 23.6521 58.2231 23.251C58.6276 22.8499 58.9446 22.3643 59.1742 21.7942C59.4148 21.2242 59.535 20.5961 59.535 19.91Z" />
<path d="M95.2521 17.1865C95.2521 18.2315 95.11 19.2397 94.8257 20.2108C94.5524 21.1714 94.1589 22.074 93.645 22.9185C93.1312 23.7524 92.519 24.5177 91.8083 25.2144C91.0977 25.9006 90.3051 26.4917 89.4305 26.9879C88.5558 27.484 87.6156 27.8693 86.6098 28.1438C85.615 28.4077 84.5763 28.5396 83.494 28.5396H76.4096V5.83334H83.494C84.5763 5.83334 85.615 5.97057 86.6098 6.24503C87.6156 6.50893 88.5558 6.88895 89.4305 7.38509C90.3051 7.88123 91.0977 8.47765 91.8083 9.17436C92.519 9.86051 93.1312 10.6258 93.645 11.4703C94.1589 12.3043 94.5524 13.2068 94.8257 14.178C95.11 15.1386 95.2521 16.1414 95.2521 17.1865ZM90.5456 17.1865C90.5456 16.247 90.3597 15.3655 89.988 14.5422C89.6273 13.7188 89.1243 13.001 88.4793 12.3887C87.8452 11.7659 87.0963 11.275 86.2327 10.9161C85.3799 10.5572 84.467 10.3778 83.494 10.3778H81.1489V23.9952H83.494C84.467 23.9952 85.3799 23.821 86.2327 23.4727C87.0963 23.1138 87.8452 22.6282 88.4793 22.0159C89.1243 21.3931 89.6273 20.67 89.988 19.8466C90.3597 19.0127 90.5456 18.126 90.5456 17.1865Z" />
<path d="M114.882 19.91C114.882 21.1767 114.647 22.359 114.177 23.4568C113.707 24.5441 113.067 25.4889 112.258 26.2912C111.449 27.0829 110.498 27.711 109.404 28.1754C108.322 28.6294 107.158 28.8563 105.912 28.8563C104.676 28.8563 103.512 28.6294 102.419 28.1754C101.336 27.711 100.385 27.0829 99.5651 26.2912C98.7561 25.4889 98.1165 24.5441 97.6464 23.4568C97.1763 22.359 96.9412 21.1767 96.9412 19.91C96.9412 18.6221 97.1763 17.4293 97.6464 16.3314C98.1165 15.2336 98.7561 14.2888 99.5651 13.4971C100.385 12.6948 101.336 12.0667 102.419 11.6128C103.512 11.1589 104.676 10.932 105.912 10.932C107.158 10.932 108.322 11.1484 109.404 11.5812C110.498 12.0034 111.449 12.6104 112.258 13.4021C113.067 14.1833 113.707 15.128 114.177 16.2364C114.647 17.3343 114.882 18.5588 114.882 19.91ZM110.372 19.91C110.372 19.2133 110.252 18.5852 110.011 18.0257C109.782 17.4557 109.465 16.9701 109.06 16.5689C108.656 16.1573 108.18 15.8459 107.633 15.6347C107.098 15.413 106.524 15.3022 105.912 15.3022C105.299 15.3022 104.72 15.413 104.173 15.6347C103.638 15.8459 103.167 16.1573 102.763 16.5689C102.369 16.9701 102.058 17.4557 101.828 18.0257C101.599 18.5852 101.484 19.2133 101.484 19.91C101.484 20.5645 101.599 21.1714 101.828 21.7309C102.058 22.2904 102.369 22.776 102.763 23.1877C103.167 23.5994 103.638 23.9266 104.173 24.1694C104.72 24.4016 105.299 24.5177 105.912 24.5177C106.524 24.5177 107.098 24.4069 107.633 24.1852C108.18 23.9635 108.656 23.6521 109.06 23.251C109.465 22.8499 109.782 22.3643 110.011 21.7942C110.252 21.2242 110.372 20.5961 110.372 19.91Z" />
<path d="M141.087 19.4666V14.9222C141.087 14.2994 140.962 13.7135 140.71 13.1646C140.47 12.6051 140.136 12.1195 139.71 11.7078C139.284 11.2961 138.781 10.9742 138.201 10.7419C137.633 10.4992 137.026 10.3778 136.381 10.3778C135.736 10.3778 135.124 10.4992 134.544 10.7419C133.976 10.9742 133.478 11.2961 133.052 11.7078C132.626 12.1195 132.287 12.6051 132.035 13.1646C131.795 13.7135 131.674 14.2994 131.674 14.9222V19.4666H141.087ZM145.794 28.5396H141.087V23.9952H131.674V28.5396H126.984V14.9222C126.984 13.666 127.23 12.489 127.722 11.3912C128.214 10.2828 128.881 9.31687 129.723 8.49349C130.576 7.67011 131.571 7.0209 132.708 6.54588C133.855 6.07085 135.08 5.83334 136.381 5.83334C137.682 5.83334 138.901 6.07085 140.038 6.54588C141.186 7.0209 142.186 7.67011 143.039 8.49349C143.892 9.31687 144.564 10.2828 145.056 11.3912C145.548 12.489 145.794 13.666 145.794 14.9222V28.5396Z" />
<path d="M153.911 35H149.402V11.5812H150.484L152.272 13.6238C152.676 13.2543 153.119 12.906 153.6 12.5787C154.081 12.2515 154.578 11.9717 155.092 11.7395C155.617 11.4967 156.158 11.3067 156.716 11.1695C157.273 11.0322 157.836 10.9636 158.405 10.9636C159.64 10.9636 160.799 11.18 161.881 11.6128C162.975 12.0351 163.926 12.6368 164.735 13.4179C165.555 14.1991 166.2 15.1439 166.67 16.2523C167.14 17.3501 167.375 18.5693 167.375 19.91C167.375 21.3034 167.14 22.5596 166.67 23.6785C166.2 24.7869 165.555 25.7317 164.735 26.5129C163.926 27.2834 162.975 27.8746 161.881 28.2863C160.799 28.698 159.64 28.9038 158.405 28.9038C158.011 28.9038 157.618 28.8616 157.224 28.7771C156.841 28.6927 156.459 28.5819 156.076 28.4446C155.704 28.2968 155.333 28.1332 154.961 27.9538C154.6 27.7743 154.25 27.5896 153.911 27.3996V35ZM162.882 19.91C162.882 19.1922 162.762 18.5482 162.521 17.9782C162.291 17.4082 161.974 16.9279 161.57 16.5373C161.165 16.1361 160.69 15.83 160.143 15.6189C159.596 15.4078 159.017 15.3022 158.405 15.3022C157.793 15.3022 157.213 15.4078 156.667 15.6189C156.131 15.83 155.661 16.1361 155.256 16.5373C154.852 16.9279 154.529 17.4082 154.289 17.9782C154.059 18.5482 153.944 19.1922 153.944 19.91C153.944 20.5961 154.059 21.2242 154.289 21.7942C154.529 22.3643 154.852 22.8499 155.256 23.251C155.661 23.6521 156.131 23.9635 156.667 24.1852C157.213 24.4069 157.793 24.5177 158.405 24.5177C159.017 24.5177 159.596 24.4069 160.143 24.1852C160.69 23.9635 161.165 23.6521 161.57 23.251C161.974 22.8499 162.291 22.3643 162.521 21.7942C162.762 21.2242 162.882 20.5961 162.882 19.91Z" />
<path d="M174.377 35H169.868V11.5812H170.95L172.738 13.6238C173.142 13.2543 173.585 12.906 174.066 12.5787C174.547 12.2515 175.044 11.9717 175.558 11.7395C176.083 11.4967 176.624 11.3067 177.182 11.1695C177.739 11.0322 178.302 10.9636 178.871 10.9636C180.106 10.9636 181.265 11.18 182.347 11.6128C183.441 12.0351 184.392 12.6368 185.201 13.4179C186.021 14.1991 186.666 15.1439 187.136 16.2523C187.606 17.3501 187.841 18.5693 187.841 19.91C187.841 21.3034 187.606 22.5596 187.136 23.6785C186.666 24.7869 186.021 25.7317 185.201 26.5129C184.392 27.2834 183.441 27.8746 182.347 28.2863C181.265 28.698 180.106 28.9038 178.871 28.9038C178.477 28.9038 178.084 28.8616 177.69 28.7771C177.307 28.6927 176.925 28.5819 176.542 28.4446C176.17 28.2968 175.799 28.1332 175.427 27.9538C175.066 27.7743 174.716 27.5896 174.377 27.3996V35ZM183.348 19.91C183.348 19.1922 183.228 18.5482 182.987 17.9782C182.757 17.4082 182.44 16.9279 182.036 16.5373C181.631 16.1361 181.156 15.83 180.609 15.6189C180.062 15.4078 179.483 15.3022 178.871 15.3022C178.259 15.3022 177.679 15.4078 177.133 15.6189C176.597 15.83 176.127 16.1361 175.722 16.5373C175.318 16.9279 174.995 17.4082 174.755 17.9782C174.525 18.5482 174.41 19.1922 174.41 19.91C174.41 20.5961 174.525 21.2242 174.755 21.7942C174.995 22.3643 175.318 22.8499 175.722 23.251C176.127 23.6521 176.597 23.9635 177.133 24.1852C177.679 24.4069 178.259 24.5177 178.871 24.5177C179.483 24.5177 180.062 24.4069 180.609 24.1852C181.156 23.9635 181.631 23.6521 182.036 23.251C182.44 22.8499 182.757 22.3643 182.987 21.7942C183.228 21.2242 183.348 20.5961 183.348 19.91Z" />
</svg>
